<?xml version="1.0" encoding="UTF-8"?>
<!DOCTYPE svg PUBLIC "-//W3C//DTD SVG 1.1//EN" "http://www.w3.org/Graphics/SVG/1.1/DTD/svg11.dtd">
<svg xmlns="http://www.w3.org/2000/svg" version="1.1" width="512px" height="512px" style="shape-rendering:geometricPrecision; text-rendering:geometricPrecision; image-rendering:optimizeQuality; fill-rule:evenodd; clip-rule:evenodd" xmlns:xlink="http://www.w3.org/1999/xlink">
<g><path style="opacity:0.978" fill="#830018" d="M 118.5,-0.5 C 122.833,-0.5 127.167,-0.5 131.5,-0.5C 134.982,0.743612 137.982,2.74361 140.5,5.5C 131.941,10.439 127.608,17.939 127.5,28C 127.895,34.8896 128.728,41.7229 130,48.5C 132.353,56.2567 134.853,63.9233 137.5,71.5C 136.833,72.8333 136.167,74.1667 135.5,75.5C 132.098,75.3424 128.764,75.6758 125.5,76.5C 125.231,71.7363 123.898,67.403 121.5,63.5C 119.538,58.2432 117.038,53.2432 114,48.5C 109.283,42.623 104.783,36.623 100.5,30.5C 99.5863,15.9764 105.586,5.64304 118.5,-0.5 Z"/></g>
<g><path style="opacity:1" fill="#a4001d" d="M 140.5,5.5 C 145.931,10.3646 149.264,16.3646 150.5,23.5C 150.2,40.7055 145.866,56.7055 137.5,71.5C 134.853,63.9233 132.353,56.2567 130,48.5C 128.728,41.7229 127.895,34.8896 127.5,28C 127.608,17.939 131.941,10.439 140.5,5.5 Z"/></g>
<g><path style="opacity:0.979" fill="#c70024" d="M 193.5,34.5 C 186.147,34.562 179.481,36.7286 173.5,41C 162.588,51.0687 154.255,62.902 148.5,76.5C 146.833,76.5 145.167,76.5 143.5,76.5C 141.052,75.5269 138.385,75.1936 135.5,75.5C 136.167,74.1667 136.833,72.8333 137.5,71.5C 145.866,56.7055 150.2,40.7055 150.5,23.5C 161.393,15.9581 172.726,15.1247 184.5,21C 189.135,24.4447 192.135,28.9447 193.5,34.5 Z"/></g>
<g><path style="opacity:1" fill="#fd0b37" d="M 100.5,30.5 C 104.783,36.623 109.283,42.623 114,48.5C 117.038,53.2432 119.538,58.2432 121.5,63.5C 105.684,60.2586 91.3508,53.7586 78.5,44C 72.6279,38.4221 69.2946,31.5888 68.5,23.5C 80.5383,19.5093 91.205,21.8426 100.5,30.5 Z"/></g>
<g><path style="opacity:0.97" fill="#c70024" d="M 68.5,23.5 C 69.2946,31.5888 72.6279,38.4221 78.5,44C 91.3508,53.7586 105.684,60.2586 121.5,63.5C 123.898,67.403 125.231,71.7363 125.5,76.5C 117.508,78.6622 109.842,81.6622 102.5,85.5C 89.0881,81.4607 76.7548,75.2941 65.5,67C 54.6787,56.2232 52.512,44.0565 59,30.5C 61.5014,27.1517 64.6681,24.8184 68.5,23.5 Z"/></g>
<g><path style="opacity:1" fill="#fc0d37" d="M 193.5,34.5 C 194.447,49.4421 188.447,60.6088 175.5,68C 168.687,72.0733 161.687,75.5733 154.5,78.5C 152.302,78.1249 150.302,77.4582 148.5,76.5C 154.255,62.902 162.588,51.0687 173.5,41C 179.481,36.7286 186.147,34.562 193.5,34.5 Z"/></g>
<g><path style="opacity:0.987" fill="#d9cbbb" d="M 135.5,75.5 C 138.385,75.1936 141.052,75.5269 143.5,76.5C 140.482,76.3354 137.482,76.502 134.5,77C 117.271,94.7185 110.938,115.885 115.5,140.5C 114.854,135.024 111.688,132.024 106,131.5C 101.328,132.675 99.1609,135.675 99.5,140.5C 100.589,151.897 106.255,159.897 116.5,164.5C 115.336,191.33 115.17,218.33 116,245.5C 125.508,309.38 160.341,352.88 220.5,376C 247.776,384.257 275.443,385.757 303.5,380.5C 288.872,388.599 273.206,393.932 256.5,396.5C 242.518,397.343 228.518,397.676 214.5,397.5C 203.237,395.059 191.903,392.393 180.5,389.5C 120.982,365.851 86.815,322.184 78,258.5C 77.5001,246.505 77.3335,234.505 77.5,222.5C 77.5,208.167 77.5,193.833 77.5,179.5C 77.5,164.833 77.5,150.167 77.5,135.5C 77.3771,114.412 85.7104,97.7455 102.5,85.5C 109.842,81.6622 117.508,78.6622 125.5,76.5C 128.764,75.6758 132.098,75.3424 135.5,75.5 Z"/></g>
<g><path style="opacity:1" fill="#eae4dc" d="M 143.5,76.5 C 145.167,76.5 146.833,76.5 148.5,76.5C 150.302,77.4582 152.302,78.1249 154.5,78.5C 177.958,86.4698 191.458,102.803 195,127.5C 195.333,141.167 195.667,154.833 196,168.5C 201.738,200.571 220.571,219.737 252.5,226C 296.165,226.5 339.832,226.667 383.5,226.5C 382.191,231.523 382.358,236.523 384,241.5C 386.235,243.202 388.735,244.202 391.5,244.5C 393.5,245.5 395.5,246.5 397.5,247.5C 402.679,250.225 408.012,252.558 413.5,254.5C 425.895,261.044 437.062,269.378 447,279.5C 454.045,288.805 456.212,299.138 453.5,310.5C 442.871,311.593 433.204,309.093 424.5,303C 408.921,287.667 396.421,270.167 387,250.5C 383.108,300.133 361.608,339.967 322.5,370C 316.434,374.032 310.101,377.532 303.5,380.5C 275.443,385.757 247.776,384.257 220.5,376C 160.341,352.88 125.508,309.38 116,245.5C 115.17,218.33 115.336,191.33 116.5,164.5C 136.234,168.14 147.901,160.14 151.5,140.5C 151.414,133.917 148.08,131.083 141.5,132C 140.069,132.465 138.903,133.299 138,134.5C 136.56,138.578 135.06,142.578 133.5,146.5C 124.54,153.011 118.54,151.011 115.5,140.5C 110.938,115.885 117.271,94.7185 134.5,77C 137.482,76.502 140.482,76.3354 143.5,76.5 Z"/></g>
<g><path style="opacity:1" fill="#b39b7d" d="M 115.5,140.5 C 118.54,151.011 124.54,153.011 133.5,146.5C 135.06,142.578 136.56,138.578 138,134.5C 138.903,133.299 140.069,132.465 141.5,132C 148.08,131.083 151.414,133.917 151.5,140.5C 147.901,160.14 136.234,168.14 116.5,164.5C 106.255,159.897 100.589,151.897 99.5,140.5C 99.1609,135.675 101.328,132.675 106,131.5C 111.688,132.024 114.854,135.024 115.5,140.5 Z"/></g>
<g><path style="opacity:0.989" fill="#ffa633" d="M 77.5,135.5 C 77.5,150.167 77.5,164.833 77.5,179.5C 63.9895,179.171 50.6562,179.504 37.5,180.5C 33.3951,180.766 29.3951,180.266 25.5,179C 23.9344,177.316 22.9344,175.316 22.5,173C 24.4828,154.695 34.1495,142.695 51.5,137C 60.1252,135.799 68.7919,135.299 77.5,135.5 Z"/></g>
<g><path style="opacity:0.971" fill="#d9ccbc" d="M 463.5,167.5 C 449.695,167.486 438.862,173.152 431,184.5C 419.11,201.114 410.277,219.281 404.5,239C 404.57,239.765 404.903,240.265 405.5,240.5C 401.051,242.638 396.384,243.971 391.5,244.5C 388.735,244.202 386.235,243.202 384,241.5C 382.358,236.523 382.191,231.523 383.5,226.5C 388.509,206.817 397.009,188.817 409,172.5C 420.981,156.172 436.481,151.339 455.5,158C 459.232,160.316 461.899,163.482 463.5,167.5 Z"/></g>
<g><path style="opacity:1" fill="#eae4dc" d="M 463.5,167.5 C 468.616,180.33 466.949,192.33 458.5,203.5C 443.076,219.045 425.409,231.379 405.5,240.5C 404.903,240.265 404.57,239.765 404.5,239C 410.277,219.281 419.11,201.114 431,184.5C 438.862,173.152 449.695,167.486 463.5,167.5 Z"/></g>
<g><path style="opacity:0.971" fill="#fe9811" d="M 77.5,179.5 C 77.5,193.833 77.5,208.167 77.5,222.5C 52.9247,219.257 39.5914,205.257 37.5,180.5C 50.6562,179.504 63.9895,179.171 77.5,179.5 Z"/></g>
<g><path style="opacity:0.971" fill="#b39a7c" d="M 458.5,203.5 C 479.139,205.787 488.806,217.12 487.5,237.5C 477.084,229.812 465.417,226.646 452.5,228C 432.973,231.451 414.639,237.951 397.5,247.5C 395.5,246.5 393.5,245.5 391.5,244.5C 396.384,243.971 401.051,242.638 405.5,240.5C 425.409,231.379 443.076,219.045 458.5,203.5 Z"/></g>
<g><path style="opacity:1" fill="#bfaa90" d="M 487.5,237.5 C 482.873,249.131 474.54,256.465 462.5,259.5C 454.16,259.666 445.827,259.5 437.5,259C 429.424,257.813 421.424,256.313 413.5,254.5C 408.012,252.558 402.679,250.225 397.5,247.5C 414.639,237.951 432.973,231.451 452.5,228C 465.417,226.646 477.084,229.812 487.5,237.5 Z"/></g>
<g><path style="opacity:0.966" fill="#d9ccbc" d="M 413.5,254.5 C 421.424,256.313 429.424,257.813 437.5,259C 445.827,259.5 454.16,259.666 462.5,259.5C 475.032,273.153 476.532,287.82 467,303.5C 463.107,307.03 458.607,309.363 453.5,310.5C 456.212,299.138 454.045,288.805 447,279.5C 437.062,269.378 425.895,261.044 413.5,254.5 Z"/></g>
<g><path style="opacity:0.972" fill="#b39a7c" d="M 180.5,389.5 C 191.903,392.393 203.237,395.059 214.5,397.5C 217.698,406.589 221.198,415.589 225,424.5C 228.109,431.073 231.942,437.073 236.5,442.5C 234.906,445.764 232.573,448.431 229.5,450.5C 224.299,453.063 219.132,453.063 214,450.5C 213.601,450.728 213.435,451.062 213.5,451.5C 207.076,446.577 201.91,440.577 198,433.5C 191.082,419.242 185.249,404.575 180.5,389.5 Z"/></g>
<g><path style="opacity:1" fill="#bfaa90" d="M 256.5,396.5 C 252.672,411.148 247.172,425.148 240,438.5C 239.051,440.093 237.885,441.426 236.5,442.5C 231.942,437.073 228.109,431.073 225,424.5C 221.198,415.589 217.698,406.589 214.5,397.5C 228.518,397.676 242.518,397.343 256.5,396.5 Z"/></g>
<g><path style="opacity:0.959" fill="#fe9811" d="M 229.5,450.5 C 229.5,465.5 229.5,480.5 229.5,495.5C 235.621,495.09 241.621,495.59 247.5,497C 251.732,502.191 251.399,507.025 246.5,511.5C 221.5,511.5 196.5,511.5 171.5,511.5C 165.645,505.434 166.312,500.267 173.5,496C 186.829,495.5 200.163,495.333 213.5,495.5C 213.5,480.833 213.5,466.167 213.5,451.5C 213.435,451.062 213.601,450.728 214,450.5C 219.132,453.063 224.299,453.063 229.5,450.5 Z"/></g>
</svg>
